<?xml version="1.0" standalone="no"?>
<!DOCTYPE svg PUBLIC "-//W3C//DTD SVG 20010904//EN"
 "http://www.w3.org/TR/2001/REC-SVG-20010904/DTD/svg10.dtd">
<svg version="1.0" xmlns="http://www.w3.org/2000/svg"
 width="600.000000pt" height="600.000000pt" viewBox="0 0 600.000000 600.000000"
 preserveAspectRatio="xMidYMid meet">

<g transform="translate(0.000000,600.000000) scale(0.100000,-0.100000)"
fill="#CF2703" stroke="none">
<path d="M1995 5520 c-3 -6 -4 -29 0 -53 3 -23 19 -217 35 -432 29 -378 52
-673 105 -1338 13 -174 36 -465 50 -645 14 -180 32 -408 40 -507 8 -99 15
-195 15 -212 l0 -33 635 0 c349 0 635 2 635 5 0 7 65 773 90 1070 21 240 86
1007 145 1713 19 227 35 420 35 428 0 12 -125 14 -889 14 -584 0 -892 -3 -896
-10z"/>
<path d="M2820 2010 c-96 -8 -148 -21 -235 -57 -182 -76 -350 -249 -420 -433
-115 -301 -40 -633 193 -852 171 -161 406 -240 623 -209 278 39 493 192 613
436 48 98 66 172 73 301 12 224 -60 419 -212 577 -169 176 -386 256 -635 237z"/>
</g>
</svg>
